<?xml version="1.0" encoding="utf-8"?>
<!DOCTYPE svg PUBLIC "-//W3C//DTD SVG 20010904//EN" "http://www.w3.org/TR/2001/REC-SVG-20010904/DTD/svg10.dtd">
<svg version="1.0" xmlns="http://www.w3.org/2000/svg" width="1500px" height="1500px" viewBox="0 0 1500 1500" preserveAspectRatio="xMidYMid meet">
 <g fill="#fd80ca">
  <path d="M836.7 1399.2 l-186.7 -0.2 0.1 -192.8 c0 -166.8 0.2 -191.8 1.4 -186.3 8.5 38.9 35 66.6 74.5 77.8 5.2 1.4 10 1.8 24.5 1.7 16.7 0 18.6 -0.2 26.9 -2.7 12.7 -3.9 21.9 -8.5 31.1 -15.4 19 -14.2 32.1 -33.1 38.7 -55.8 l2.3 -8 0.3 -83.7 0.3 -83.7 83.7 -0.3 83.7 -0.3 8 -2.3 c36.5 -10.5 61.7 -36.1 72.1 -73.2 2.7 -9.3 2.7 -38.7 0 -48 -7.3 -26.2 -21.4 -46 -42.6 -59.9 -9.1 -6 -20.8 -11.2 -30.1 -13.3 -8.7 -2 -2.7 -2.6 17.6 -1.7 108.4 4.8 208.5 55.8 276.6 141.1 44.3 55.5 71.8 122.9 79.4 194.5 2.1 19.5 2.1 57.1 0 76.6 -16.1 152.4 -122.6 279.5 -269.5 321.6 -32.8 9.4 -56.6 12.9 -99 14.4 -3.6 0.1 -90.5 0.1 -193.3 -0.1z"/>
 </g>
 <g fill="#9a63ff">
  <path d="M457 850 c-134.8 -6.4 -256.1 -85.5 -316.8 -206.7 -52.8 -105.1 -52.8 -230.5 0 -335.6 57.4 -114.6 168.8 -191.7 296.5 -205.2 19.5 -2.1 57.1 -2.1 76.6 0 67.9 7.2 132.5 32.5 186.2 72.9 27.4 20.5 54.6 47.7 75.1 75.1 29.2 38.7 51.5 85.4 63.3 132.1 6.7 26.7 10.8 56.2 11.2 80.9 0.2 17.8 0.1 18.1 -2.7 8.7 -10.3 -35 -35.8 -59.6 -72.4 -69.8 -5.2 -1.5 -10.1 -1.9 -24 -1.9 -20.5 0 -26.9 1.4 -43.5 9.4 -11.8 5.8 -20.6 12.2 -29.5 21.7 -11.2 11.9 -19.4 26.5 -24.2 42.9 l-2.3 8 -0.3 83.7 -0.3 83.7 -83.7 0.3 -83.7 0.3 -9 2.8 c-36.1 11.2 -60.9 36.7 -70.7 72.5 -3.1 11.1 -3.1 37.3 0 48.4 6.2 22.7 19.3 42.4 37.2 56 11.6 8.9 35.4 18.8 44.9 18.8 4.8 0 1.5 0.7 -5.4 1.2 -3.8 0.3 -14 0.2 -22.5 -0.2z"/>
 </g>
</svg>